<svg width="123" height="26" viewBox="0 0 123 26" fill="none" xmlns="http://www.w3.org/2000/svg">
<path d="M1.72011 7.9754L0.744078 13.5186C0.726894 13.6113 0.788755 13.6973 0.881547 13.7144L4.16362 14.2918L8.56607 11.7522C8.82382 11.6045 9.15374 11.6903 9.30153 11.9481L9.59021 12.4463L10.116 9.45312C10.1332 9.36034 10.0714 9.27443 9.97857 9.25724L1.916 7.83794C1.82321 7.82418 1.73729 7.88261 1.72011 7.9754Z" fill="#1F2323"/>
<path d="M4.38665 21.8626L7.27351 20.1959L9.01248 15.419C9.11559 15.1407 9.42489 14.9928 9.70327 15.0959L10.2428 15.2918L10.0194 14.9035L9.35616 13.7523L8.7238 12.6594C8.67568 12.5803 8.57602 12.5529 8.49354 12.5976L1.40357 16.6974C1.32453 16.7455 1.29703 16.8452 1.34171 16.9277L4.15639 21.8008C4.20451 21.8832 4.30761 21.9107 4.38665 21.8626Z" fill="#1F2323"/>
<path d="M25.9276 7.9754C25.9104 7.88261 25.8245 7.82418 25.7317 7.83794L22.4496 8.41528L19.1847 12.3123C18.9923 12.5391 18.652 12.5701 18.4252 12.3777L17.9854 12.0065L18.0643 12.4463L18.2946 13.7557L18.5146 14.9998C18.5318 15.0926 18.6176 15.151 18.7104 15.1372L26.773 13.7144C26.8658 13.6973 26.9242 13.6113 26.9105 13.5186L25.9276 7.9754Z" fill="#1F2323"/>
<path d="M11.7144 17.9401C11.6113 17.6617 11.7557 17.349 12.0375 17.2493L12.5771 17.0535L9.72112 16.0157C9.6352 15.9847 9.53897 16.0294 9.50461 16.1153L8.21584 19.6515L7.84123 20.6757L6.70024 23.8063C6.6693 23.8923 6.71398 23.9885 6.79991 24.0228L12.089 25.9474C12.1749 25.9783 12.2712 25.9337 12.3055 25.8477L13.4465 22.717L11.7144 17.9401Z" fill="#1F2323"/>
<path d="M19.8034 20.6777L15.4009 18.1381C15.1432 17.9902 15.0538 17.6603 15.2051 17.4026L15.4937 16.9043L12.6378 17.9422C12.5518 17.9731 12.5072 18.0693 12.5381 18.1587L15.3391 25.8532C15.37 25.939 15.4662 25.9838 15.5556 25.9529L20.8447 24.0283C20.9306 23.9974 20.9787 23.9012 20.9444 23.8118L19.8034 20.6777Z" fill="#1F2323"/>
<path d="M26.2436 16.6952L23.3567 15.0285L18.3528 15.9117C18.0608 15.9632 17.7789 15.7673 17.7273 15.4752L17.6276 14.9082L16.1086 17.5406C16.0606 17.6197 16.088 17.7228 16.1706 17.7709L23.2605 21.8639C23.3396 21.9119 23.4427 21.881 23.4907 21.802L26.3055 16.9255C26.3501 16.843 26.3226 16.7399 26.2436 16.6952Z" fill="#1F2323"/>
<path d="M18.7227 11.5137C18.7949 11.572 18.9014 11.5652 18.9598 11.493L21.3792 8.6097L22.0804 7.77461L24.2214 5.22123C24.2799 5.14906 24.2729 5.04253 24.2008 4.9841L19.8877 1.36538C19.8155 1.30695 19.709 1.31383 19.6506 1.386L17.5094 3.93938V9.02209C17.5094 9.32108 17.2689 9.56163 16.9699 9.56163H16.3926L18.7227 11.5137Z" fill="#1F2323"/>
<path d="M10.5772 8.65781C10.8694 8.70936 11.0652 8.98772 11.0137 9.28327L10.914 9.85031L13.2407 7.89833C13.3128 7.83991 13.3197 7.73337 13.2613 7.66121L7.99969 1.386C7.94128 1.31383 7.83474 1.30695 7.76256 1.36538L3.44947 4.9841C3.37731 5.04253 3.37043 5.14906 3.42885 5.22123L5.56993 7.77461L10.5772 8.65781Z" fill="#1F2323"/>
<path d="M13.8239 7.2389L14.1091 7.57912C14.3016 7.80594 14.2707 8.14616 14.0439 8.33861L13.604 8.70976H14.0507H15.3773H16.642C16.7348 8.70976 16.8104 8.63416 16.8104 8.54137V4.77487V3.68203V0.351986C16.8104 0.259199 16.7348 0.183594 16.642 0.183594H11.0092C10.9164 0.183594 10.8408 0.259199 10.8408 0.351986V3.68548L13.8239 7.2389Z" fill="#1F2323"/>
<path d="M44.5173 6.54896L43.6307 8.40815C43.5722 8.38065 42.9433 7.86516 41.6855 7.86516C39.7403 7.86516 38.1388 9.63844 38.1388 12.3533V20.2163H35.9668V6.20529H37.7951L38.1113 8.06449C38.7676 6.89261 40.1114 5.80665 41.9433 5.80665C43.5722 5.80321 44.4039 6.49053 44.5173 6.54896Z" fill="#1F2323"/>
<path d="M51.4942 20.6125C47.2051 20.6125 44.5176 17.2686 44.5176 13.2066C44.5176 9.1755 47.4629 5.80078 51.4667 5.80078C55.3845 5.82828 58.0411 8.57411 58.0411 12.863V13.8081H46.6621C46.7755 16.5814 48.6932 18.7532 51.4942 18.7532C53.7246 18.7532 55.2677 17.468 55.7248 16.0384L57.639 16.6397C56.9276 18.6949 54.869 20.6125 51.4942 20.6125ZM56.01 12.0073C55.8382 9.57758 54.0373 7.66341 51.4942 7.66341C48.7207 7.66341 47.0333 9.63601 46.6896 12.0073H56.01Z" fill="#1F2323"/>
<path d="M66.4208 20.6125C62.1318 20.6125 59.4443 17.2686 59.4443 13.2066C59.4443 9.1755 62.3895 5.80078 66.3933 5.80078C70.3112 5.82828 72.9678 8.57411 72.9678 12.863V13.8081H61.5889C61.7023 16.5814 63.6199 18.7532 66.4208 18.7532C68.6513 18.7532 70.1944 17.468 70.6515 16.0384L72.5658 16.6397C71.8509 18.6949 69.7922 20.6125 66.4208 20.6125ZM70.9367 12.0073C70.7649 9.57758 68.9641 7.66341 66.4208 7.66341C63.6474 7.66341 61.96 9.63601 61.6163 12.0073H70.9367Z" fill="#1F2323"/>
<path d="M76.4825 0.203125V8.23786C77.5136 6.86666 79.1116 5.80819 81.4005 5.80819C85.8888 5.80819 88.0609 9.55408 88.0609 13.1831C88.0609 16.7846 85.6311 20.5889 81.4005 20.5889C78.9432 20.5889 77.3417 19.4445 76.4241 18.1593L76.1389 20.2178H74.3105V0.203125H76.4825ZM81.1737 18.6439C83.9746 18.6439 85.8923 16.3276 85.8923 13.1831C85.8923 10.0111 83.978 7.74987 81.1737 7.74987C78.3418 7.74987 76.4551 10.0386 76.4551 13.1831C76.4551 16.3276 78.3418 18.6439 81.1737 18.6439Z" fill="#1F2323"/>
<path d="M96.4708 20.6125C92.1817 20.6125 89.4941 17.2686 89.4941 13.2066C89.4941 9.1755 92.4394 5.80078 96.4432 5.80078C100.361 5.82828 103.018 8.57411 103.018 12.863V13.8081H91.6387C91.7521 16.5814 93.6698 18.7532 96.4708 18.7532C98.7012 18.7532 100.244 17.468 100.701 16.0384L102.616 16.6397C101.901 18.6949 99.8421 20.6125 96.4708 20.6125ZM100.987 12.0073C100.815 9.57758 99.0139 7.66341 96.4708 7.66341C93.6973 7.66341 92.0098 9.63601 91.6662 12.0073H100.987Z" fill="#1F2323"/>
<path d="M104.419 0.203125H106.591V20.2144H104.419V0.203125Z" fill="#1F2323"/>
<path d="M115.142 20.6125C110.541 20.6125 107.994 16.8666 107.994 13.2066C107.994 9.51917 110.654 5.80078 115.142 5.80078C119.716 5.80078 122.345 9.51573 122.345 13.2066C122.345 16.8666 119.716 20.6125 115.142 20.6125ZM115.142 18.6398C118.115 18.6398 120.174 16.2686 120.174 13.2066C120.174 10.1206 118.115 7.77338 115.142 7.77338C112.197 7.77338 110.166 10.1171 110.166 13.2066C110.166 16.2652 112.197 18.6398 115.142 18.6398Z" fill="#1F2323"/>
</svg>
